<svg xmlns="http://www.w3.org/2000/svg" style="display: none;">
    <!-- Иконка для тёмной темы -->
    <symbol id="icon-light-mode" viewBox="0 0 24 24">
        <path d="M12 21C9.5 21 7.375 20.125 5.625 18.375C3.875 16.625 3 14.5 3 12C3 9.5 3.875 7.375 5.625 5.625C7.375 3.875 9.5 3 12 3C12.2333 3 12.4625 3.00833 12.6875 3.025C12.9125 3.04167 13.1333 3.06667 13.35 3.1C12.6667 3.58333 12.1208 4.2125 11.7125 4.9875C11.3042 5.7625 11.1 6.6 11.1 7.5C11.1 9 11.625 10.275 12.675 11.325C13.725 12.375 15 12.9 16.5 12.9C17.4167 12.9 18.2583 12.6958 19.025 12.2875C19.7917 11.8792 20.4167 11.3333 20.9 10.65C20.9333 10.8667 20.9583 11.0875 20.975 11.3125C20.9917 11.5375 21 11.7667 21 12C21 14.5 20.125 16.625 18.375 18.375C16.625 20.125 14.5 21 12 21Z" fill="currentColor"/>
    </symbol>

    <!-- Иконка для светлой темы -->
    <symbol id="icon-dark-mode" viewBox="0 0 24 24">
        <path d="M12 15C12.8333 15 13.5417 14.7083 14.125 14.125C14.7083 13.5417 15 12.8333 15 12C15 11.1667 14.7083 10.4583 14.125 9.875C13.5417 9.29167 12.8333 9 12 9C11.1667 9 10.4583 9.29167 9.875 9.875C9.29167 10.4583 9 11.1667 9 12C9 12.8333 9.29167 13.5417 9.875 14.125C10.4583 14.7083 11.1667 15 12 15ZM12 17C10.6167 17 9.4375 16.5125 8.4625 15.5375C7.4875 14.5625 7 13.3833 7 12C7 10.6167 7.4875 9.4375 8.4625 8.4625C9.4375 7.4875 10.6167 7 12 7C13.3833 7 14.5625 7.4875 15.5375 8.4625C16.5125 9.4375 17 10.6167 17 12C17 13.3833 16.5125 14.5625 15.5375 15.5375C14.5625 16.5125 13.3833 17 12 17ZM5 13H1V11H5V13ZM23 13H19V11H23V13ZM11 5V1H13V5H11ZM11 23V19H13V23H11ZM6.4 7.75L3.875 5.325L5.3 3.85L7.7 6.35L6.4 7.75ZM18.7 20.15L16.275 17.625L17.6 16.25L20.125 18.675L18.7 20.15ZM16.25 6.4L18.675 3.875L20.15 5.3L17.65 7.7L16.25 6.4ZM3.85 18.7L6.375 16.275L7.75 17.6L5.325 20.125L3.85 18.7Z" fill="currentColor"/>
    </symbol>

    <!-- Иконка для редактирования -->
    <symbol id="icon-edit" viewBox="0 0 15 15">
        <path d="M7.5 12.5H13.125M10.3125 2.1875C10.5611 1.93886 10.8984 1.79918 11.25 1.79918C11.4241 1.79918 11.5965 1.83347 11.7574 1.9001C11.9182 1.96673 12.0644 2.06439 12.1875 2.1875C12.3106 2.31061 12.4083 2.45677 12.4749 2.61763C12.5415 2.77849 12.5758 2.95089 12.5758 3.125C12.5758 3.29911 12.5415 3.47152 12.4749 3.63237C12.4083 3.79323 12.3106 3.93939 12.1875 4.0625L4.375 11.875L1.875 12.5L2.5 10L10.3125 2.1875Z" stroke="white" stroke-width="1.6" stroke-linecap="round" stroke-linejoin="round"/>
    </symbol>
</svg>